<svg xmlns="http://www.w3.org/2000/svg" width="760" height="420" viewBox="0 0 760 420">
<rect width="100%" height="100%" fill="white"/>
<line x1="70" y1="350" x2="720" y2="350" stroke="#555"/>
<line x1="70" y1="30" x2="70" y2="350" stroke="#555"/>
<text x="395.0" y="395" text-anchor="middle" font-family="sans-serif">Laplacian eigenvalue λ</text>
<text x="18" y="190" transform="rotate(-90 18 190)" text-anchor="middle" font-family="sans-serif">Spectral response</text>
<text x="70.0" y="370" text-anchor="middle" font-family="sans-serif" font-size="12">0.0</text>
<text x="232.5" y="370" text-anchor="middle" font-family="sans-serif" font-size="12">0.5</text>
<text x="395.0" y="370" text-anchor="middle" font-family="sans-serif" font-size="12">1.0</text>
<text x="557.5" y="370" text-anchor="middle" font-family="sans-serif" font-size="12">1.5</text>
<text x="720.0" y="370" text-anchor="middle" font-family="sans-serif" font-size="12">2.0</text>
<polyline fill="none" stroke="#666666" stroke-width="2.5" points="70.00,110.00 78.12,110.00 86.25,110.00 94.38,110.00 102.50,110.00 110.62,110.00 118.75,110.00 126.88,110.00 135.00,110.00 143.12,110.00 151.25,110.00 159.38,110.00 167.50,110.00 175.62,110.00 183.75,110.00 191.88,110.00 200.00,110.00 208.13,110.00 216.25,110.00 224.38,110.00 232.50,110.00 240.62,110.00 248.75,110.00 256.88,110.00 265.00,110.00 273.12,110.00 281.25,110.00 289.38,110.00 297.50,110.00 305.62,110.00 313.75,110.00 321.88,110.00 330.00,110.00 338.12,110.00 346.25,110.00 354.38,110.00 362.50,110.00 370.62,110.00 378.75,110.00 386.88,110.00 395.00,110.00 403.13,110.00 411.25,110.00 419.38,110.00 427.50,110.00 435.62,110.00 443.75,110.00 451.88,110.00 460.00,110.00 468.13,110.00 476.25,110.00 484.38,110.00 492.50,110.00 500.63,110.00 508.75,110.00 516.88,110.00 525.00,110.00 533.12,110.00 541.25,110.00 549.38,110.00 557.50,110.00 565.62,110.00 573.75,110.00 581.88,110.00 590.00,110.00 598.12,110.00 606.25,110.00 614.38,110.00 622.50,110.00 630.62,110.00 638.75,110.00 646.88,110.00 655.00,110.00 663.13,110.00 671.25,110.00 679.38,110.00 687.50,110.00 695.62,110.00 703.75,110.00 711.88,110.00 720.00,110.00"/>
<text x="85" y="20" fill="#666666" font-family="sans-serif" font-size="13">raw</text>
<polyline fill="none" stroke="#2f6fed" stroke-width="2.5" points="70.00,110.00 78.12,113.95 86.25,117.80 94.38,121.55 102.50,125.20 110.62,128.75 118.75,132.20 126.88,135.55 135.00,138.80 143.12,141.95 151.25,145.00 159.38,147.95 167.50,150.80 175.62,153.55 183.75,156.20 191.88,158.75 200.00,161.20 208.13,163.55 216.25,165.80 224.38,167.95 232.50,170.00 240.62,171.95 248.75,173.80 256.88,175.55 265.00,177.20 273.12,178.75 281.25,180.20 289.38,181.55 297.50,182.80 305.62,183.95 313.75,185.00 321.88,185.95 330.00,186.80 338.12,187.55 346.25,188.20 354.38,188.75 362.50,189.20 370.62,189.55 378.75,189.80 386.88,189.95 395.00,190.00 403.13,189.95 411.25,189.80 419.38,189.55 427.50,189.20 435.62,188.75 443.75,188.20 451.88,187.55 460.00,186.80 468.13,185.95 476.25,185.00 484.38,183.95 492.50,182.80 500.63,181.55 508.75,180.20 516.88,178.75 525.00,177.20 533.12,175.55 541.25,173.80 549.38,171.95 557.50,170.00 565.62,167.95 573.75,165.80 581.88,163.55 590.00,161.20 598.12,158.75 606.25,156.20 614.38,153.55 622.50,150.80 630.62,147.95 638.75,145.00 646.88,141.95 655.00,138.80 663.13,135.55 671.25,132.20 679.38,128.75 687.50,125.20 695.62,121.55 703.75,117.80 711.88,113.95 720.00,110.00"/>
<text x="185" y="20" fill="#2f6fed" font-family="sans-serif" font-size="13">low</text>
<polyline fill="none" stroke="#ef8a17" stroke-width="2.5" points="70.00,190.00 78.12,188.05 86.25,186.20 94.38,184.45 102.50,182.80 110.62,181.25 118.75,179.80 126.88,178.45 135.00,177.20 143.12,176.05 151.25,175.00 159.38,174.05 167.50,173.20 175.62,172.45 183.75,171.80 191.88,171.25 200.00,170.80 208.13,170.45 216.25,170.20 224.38,170.05 232.50,170.00 240.62,170.05 248.75,170.20 256.88,170.45 265.00,170.80 273.12,171.25 281.25,171.80 289.38,172.45 297.50,173.20 305.62,174.05 313.75,175.00 321.88,176.05 330.00,177.20 338.12,178.45 346.25,179.80 354.38,181.25 362.50,182.80 370.62,184.45 378.75,186.20 386.88,188.05 395.00,190.00 403.13,192.05 411.25,194.20 419.38,196.45 427.50,198.80 435.62,201.25 443.75,203.80 451.88,206.45 460.00,209.20 468.13,212.05 476.25,215.00 484.38,218.05 492.50,221.20 500.63,224.45 508.75,227.80 516.88,231.25 525.00,234.80 533.12,238.45 541.25,242.20 549.38,246.05 557.50,250.00 565.62,254.05 573.75,258.20 581.88,262.45 590.00,266.80 598.12,271.25 606.25,275.80 614.38,280.45 622.50,285.20 630.62,290.05 638.75,295.00 646.88,300.05 655.00,305.20 663.13,310.45 671.25,315.80 679.38,321.25 687.50,326.80 695.62,332.45 703.75,338.20 711.88,344.05 720.00,350.00"/>
<text x="285" y="20" fill="#ef8a17" font-family="sans-serif" font-size="13">mid</text>
<polyline fill="none" stroke="#c33c54" stroke-width="2.5" points="70.00,190.00 78.12,188.00 86.25,186.00 94.38,184.00 102.50,182.00 110.62,180.00 118.75,178.00 126.88,176.00 135.00,174.00 143.12,172.00 151.25,170.00 159.38,168.00 167.50,166.00 175.62,164.00 183.75,162.00 191.88,160.00 200.00,158.00 208.13,156.00 216.25,154.00 224.38,152.00 232.50,150.00 240.62,148.00 248.75,146.00 256.88,144.00 265.00,142.00 273.12,140.00 281.25,138.00 289.38,136.00 297.50,134.00 305.62,132.00 313.75,130.00 321.88,128.00 330.00,126.00 338.12,124.00 346.25,122.00 354.38,120.00 362.50,118.00 370.62,116.00 378.75,114.00 386.88,112.00 395.00,110.00 403.13,108.00 411.25,106.00 419.38,104.00 427.50,102.00 435.62,100.00 443.75,98.00 451.88,96.00 460.00,94.00 468.13,92.00 476.25,90.00 484.38,88.00 492.50,86.00 500.63,84.00 508.75,82.00 516.88,80.00 525.00,78.00 533.12,76.00 541.25,74.00 549.38,72.00 557.50,70.00 565.62,68.00 573.75,66.00 581.88,64.00 590.00,62.00 598.12,60.00 606.25,58.00 614.38,56.00 622.50,54.00 630.62,52.00 638.75,50.00 646.88,48.00 655.00,46.00 663.13,44.00 671.25,42.00 679.38,40.00 687.50,38.00 695.62,36.00 703.75,34.00 711.88,32.00 720.00,30.00"/>
<text x="385" y="20" fill="#c33c54" font-family="sans-serif" font-size="13">high</text>
</svg>